<svg xmlns="http://www.w3.org/2000/svg" width="1400" height="600" viewBox="0 0 1400 600">
  <rect fill="#f4efe6" width="1400" height="600"/>
  <!-- AI Brain/Neural Network -->
  <circle cx="400" cy="300" r="120" fill="none" stroke="#2d4a2e" stroke-width="3"/>
  <!-- Neural nodes -->
  <circle cx="350" cy="250" r="15" fill="#c69c3f"/>
  <circle cx="450" cy="250" r="15" fill="#c69c3f"/>
  <circle cx="300" cy="300" r="15" fill="#2d4a2e"/>
  <circle cx="400" cy="300" r="15" fill="#2d4a2e"/>
  <circle cx="500" cy="300" r="15" fill="#2d4a2e"/>
  <circle cx="350" cy="350" r="15" fill="#7a6a5a"/>
  <circle cx="450" cy="350" r="15" fill="#7a6a5a"/>
  <!-- Connections -->
  <line x1="350" y1="250" x2="300" y2="300" stroke="#c69c3f" stroke-width="2" opacity="0.5"/>
  <line x1="350" y1="250" x2="400" y2="300" stroke="#c69c3f" stroke-width="2" opacity="0.5"/>
  <line x1="450" y1="250" x2="400" y2="300" stroke="#c69c3f" stroke-width="2" opacity="0.5"/>
  <line x1="450" y1="250" x2="500" y2="300" stroke="#c69c3f" stroke-width="2" opacity="0.5"/>
  <line x1="300" y1="300" x2="350" y2="350" stroke="#2d4a2e" stroke-width="2" opacity="0.5"/>
  <line x1="400" y1="300" x2="350" y2="350" stroke="#2d4a2e" stroke-width="2" opacity="0.5"/>
  <line x1="400" y1="300" x2="450" y2="350" stroke="#2d4a2e" stroke-width="2" opacity="0.5"/>
  <line x1="500" y1="300" x2="450" y2="350" stroke="#2d4a2e" stroke-width="2" opacity="0.5"/>
  <!-- AI sparkles -->
  <path d="M 280 200 L 285 215 L 300 220 L 285 225 L 280 240 L 275 225 L 260 220 L 275 215 Z" fill="#c69c3f" opacity="0.7"/>
  <path d="M 500 180 L 503 190 L 513 193 L 503 196 L 500 206 L 497 196 L 487 193 L 497 190 Z" fill="#c69c3f" opacity="0.7"/>
  <!-- App grid -->
  <rect fill="#fffdf8" x="650" y="150" width="140" height="140" rx="20" stroke="#c4b5a0" stroke-width="2"/>
  <circle cx="720" cy="200" r="20" fill="#2d4a2e"/>
  <path d="M 714 200 L 718 204 L 726 195" fill="none" stroke="#f4efe6" stroke-width="2"/>
  <text x="720" y="240" font-family="sans-serif" font-size="13" fill="#3a3226" text-anchor="middle" font-weight="bold">TaskAI</text>
  <text x="720" y="260" font-family="sans-serif" font-size="11" fill="#7a6a5a" text-anchor="middle">Smart planning</text>
  <rect fill="#fffdf8" x="830" y="150" width="140" height="140" rx="20" stroke="#c4b5a0" stroke-width="2"/>
  <circle cx="900" cy="200" r="20" fill="#c69c3f"/>
  <text x="900" y="208" font-family="sans-serif" font-size="20" fill="#f4efe6" text-anchor="middle" font-weight="bold">M</text>
  <text x="900" y="240" font-family="sans-serif" font-size="13" fill="#3a3226" text-anchor="middle" font-weight="bold">MindPal</text>
  <text x="900" y="260" font-family="sans-serif" font-size="11" fill="#7a6a5a" text-anchor="middle">AI assistant</text>
  <rect fill="#fffdf8" x="1010" y="150" width="140" height="140" rx="20" stroke="#c4b5a0" stroke-width="2"/>
  <rect fill="#7a6a5a" x="1068" y="190" width="24" height="24" rx="4"/>
  <text x="1080" y="240" font-family="sans-serif" font-size="13" fill="#3a3226" text-anchor="middle" font-weight="bold">AutoFlow</text>
  <text x="1080" y="260" font-family="sans-serif" font-size="11" fill="#7a6a5a" text-anchor="middle">Automation</text>
  <rect fill="#fffdf8" x="650" y="330" width="140" height="140" rx="20" stroke="#c4b5a0" stroke-width="2"/>
  <circle cx="720" cy="380" r="20" fill="none" stroke="#2d4a2e" stroke-width="3"/>
  <circle cx="720" cy="380" r="10" fill="#2d4a2e"/>
  <text x="720" y="420" font-family="sans-serif" font-size="13" fill="#3a3226" text-anchor="middle" font-weight="bold">FocusBot</text>
  <text x="720" y="440" font-family="sans-serif" font-size="11" fill="#7a6a5a" text-anchor="middle">Deep work</text>
  <rect fill="#fffdf8" x="830" y="330" width="140" height="140" rx="20" stroke="#c4b5a0" stroke-width="2"/>
  <path d="M 890 370 L 910 370 L 900 390 Z" fill="#c69c3f"/>
  <text x="900" y="420" font-family="sans-serif" font-size="13" fill="#3a3226" text-anchor="middle" font-weight="bold">WriteAI</text>
  <text x="900" y="440" font-family="sans-serif" font-size="11" fill="#7a6a5a" text-anchor="middle">Content gen</text>
  <rect fill="#fffdf8" x="1010" y="330" width="140" height="140" rx="20" stroke="#c4b5a0" stroke-width="2"/>
  <circle cx="1080" cy="380" r="18" fill="#2d4a2e"/>
  <text x="1080" y="388" font-family="sans-serif" font-size="18" fill="#f4efe6" text-anchor="middle" font-weight="bold">?</text>
  <text x="1080" y="420" font-family="sans-serif" font-size="13" fill="#3a3226" text-anchor="middle" font-weight="bold">QueryAI</text>
  <text x="1080" y="440" font-family="sans-serif" font-size="11" fill="#7a6a5a" text-anchor="middle">Research</text>
  <!-- Connection from brain to apps -->
  <line x1="520" y1="300" x2="600" y2="280" stroke="#c69c3f" stroke-width="2" stroke-dasharray="5,5" opacity="0.5"/>
  <circle cx="600" cy="280" r="4" fill="#c69c3f"/>
</svg>
