<svg xmlns="http://www.w3.org/2000/svg" width="1400" height="600" viewBox="0 0 1400 600">
  <rect fill="#f4efe6" width="1400" height="600"/>
  <!-- Sunrise/Morning scene -->
  <circle cx="300" cy="200" r="80" fill="#c69c3f" opacity="0.3"/>
  <circle cx="300" cy="200" r="60" fill="#c69c3f" opacity="0.5"/>
  <circle cx="300" cy="200" r="45" fill="#c69c3f"/>
  <!-- Sun rays -->
  <line x1="300" y1="120" x2="300" y2="80" stroke="#c69c3f" stroke-width="3" stroke-linecap="round" opacity="0.6"/>
  <line x1="380" y1="200" x2="420" y2="200" stroke="#c69c3f" stroke-width="3" stroke-linecap="round" opacity="0.6"/>
  <line x1="356" y1="144" x2="382" y2="118" stroke="#c69c3f" stroke-width="3" stroke-linecap="round" opacity="0.6"/>
  <line x1="244" y1="144" x2="218" y2="118" stroke="#c69c3f" stroke-width="3" stroke-linecap="round" opacity="0.6"/>
  <line x1="356" y1="256" x2="382" y2="282" stroke="#c69c3f" stroke-width="3" stroke-linecap="round" opacity="0.6"/>
  <!-- Coffee cup -->
  <rect fill="#fffdf8" x="250" y="350" width="60" height="70" rx="4" stroke="#7a6a5a" stroke-width="2"/>
  <ellipse cx="280" cy="350" rx="30" ry="8" fill="#7a6a5a" opacity="0.3"/>
  <path d="M 310 370 Q 330 370 330 385 Q 330 400 310 400" fill="none" stroke="#7a6a5a" stroke-width="2"/>
  <!-- Steam -->
  <path d="M 265 340 Q 262 325 265 310" fill="none" stroke="#7a6a5a" stroke-width="2" opacity="0.3" stroke-linecap="round"/>
  <path d="M 280 335 Q 277 320 280 305" fill="none" stroke="#7a6a5a" stroke-width="2" opacity="0.3" stroke-linecap="round"/>
  <path d="M 295 340 Q 292 325 295 310" fill="none" stroke="#7a6a5a" stroke-width="2" opacity="0.3" stroke-linecap="round"/>
  <!-- Daily planning checklist -->
  <rect fill="#fffdf8" x="500" y="120" width="400" height="360" rx="8" stroke="#c4b5a0" stroke-width="2"/>
  <text x="700" y="165" font-family="sans-serif" font-size="24" fill="#3a3226" text-anchor="middle" font-weight="bold">Today's Plan</text>
  <text x="530" y="195" font-family="sans-serif" font-size="12" fill="#7a6a5a">Sunday, February 23</text>
  <line x1="520" y1="205" x2="880" y2="205" stroke="#d5cec3" stroke-width="1"/>
  <!-- Morning section -->
  <text x="530" y="230" font-family="sans-serif" font-size="13" fill="#c69c3f" font-weight="bold">MORNING</text>
  <circle cx="545" cy="255" r="10" fill="none" stroke="#c4b5a0" stroke-width="2"/>
  <text x="565" y="260" font-family="sans-serif" font-size="14" fill="#3a3226">Review goals for the week</text>
  <text x="860" y="260" font-family="sans-serif" font-size="12" fill="#7a6a5a">~15m</text>
  <circle cx="545" cy="285" r="10" fill="none" stroke="#c4b5a0" stroke-width="2"/>
  <text x="565" y="290" font-family="sans-serif" font-size="14" fill="#3a3226">Deep work: Project proposal</text>
  <text x="860" y="290" font-family="sans-serif" font-size="12" fill="#7a6a5a">~2h</text>
  <circle cx="545" cy="315" r="10" fill="#2d4a2e"/>
  <path d="M 540 315 L 543 318 L 550 310" fill="none" stroke="#f4efe6" stroke-width="2"/>
  <text x="565" y="320" font-family="sans-serif" font-size="14" fill="#7a6a5a" opacity="0.6">Morning exercise</text>
  <!-- Afternoon section -->
  <text x="530" y="355" font-family="sans-serif" font-size="13" fill="#c69c3f" font-weight="bold">AFTERNOON</text>
  <circle cx="545" cy="380" r="10" fill="none" stroke="#c4b5a0" stroke-width="2"/>
  <text x="565" y="385" font-family="sans-serif" font-size="14" fill="#3a3226">Team meeting @ 2pm</text>
  <text x="860" y="385" font-family="sans-serif" font-size="12" fill="#7a6a5a">~1h</text>
  <circle cx="545" cy="410" r="10" fill="none" stroke="#c4b5a0" stroke-width="2"/>
  <text x="565" y="415" font-family="sans-serif" font-size="14" fill="#3a3226">Process email inbox</text>
  <text x="860" y="415" font-family="sans-serif" font-size="12" fill="#7a6a5a">~30m</text>
  <!-- Evening section -->
  <text x="530" y="445" font-family="sans-serif" font-size="13" fill="#c69c3f" font-weight="bold">EVENING</text>
  <circle cx="545" cy="465" r="10" fill="none" stroke="#c4b5a0" stroke-width="2"/>
  <text x="565" y="470" font-family="sans-serif" font-size="14" fill="#3a3226">Plan tomorrow</text>
  <text x="860" y="470" font-family="sans-serif" font-size="12" fill="#7a6a5a">~10m</text>
  <!-- Apps showcase on right -->
  <rect fill="#2d4a2e" x="980" y="150" width="60" height="60" rx="12"/>
  <circle cx="1010" cy="170" r="8" fill="#f4efe6"/>
  <circle cx="1010" cy="170" r="4" fill="#c69c3f"/>
  <rect fill="#c69c3f" x="1070" y="150" width="60" height="60" rx="12"/>
  <text x="1100" y="188" font-family="sans-serif" font-size="28" fill="#f4efe6" text-anchor="middle" font-weight="bold">T</text>
  <rect fill="#7a6a5a" x="980" y="240" width="60" height="60" rx="12"/>
  <path d="M 1000 265 L 1020 265 L 1010 280 Z" fill="#f4efe6"/>
  <rect fill="#3a3226" x="1070" y="240" width="60" height="60" rx="12"/>
  <circle cx="1100" cy="270" r="12" fill="none" stroke="#f4efe6" stroke-width="2"/>
  <path d="M 1094 270 L 1097 273 L 1106 263" fill="none" stroke="#f4efe6" stroke-width="2"/>
</svg>
